<svg width="24" height="24" viewBox="0 0 24 24" fill="none" xmlns="http://www.w3.org/2000/svg">
<path d="M8 22.75H21C21.96 22.75 22.75 21.96 22.75 21V8C22.75 3.58 20.42 1.25 16 1.25H8C3.58 1.25 1.25 3.58 1.25 8V16C1.25 20.42 3.58 22.75 8 22.75ZM16 2.75C19.58 2.75 21.25 4.42 21.25 8V21C21.25 21.14 21.14 21.25 21 21.25H8C4.42 21.25 2.75 19.58 2.75 16V8C2.75 4.42 4.42 2.75 8 2.75H16Z" fill="#F8F6F9"/>
<path d="M16.75 10.25H6.75C6.34 10.25 6 9.91 6 9.5C6 9.09 6.34 8.75 6.75 8.75H16.75C17.16 8.75 17.5 9.09 17.5 9.5C17.5 9.91 17.16 10.25 16.75 10.25Z" fill="#F8F6F9"/>
<path d="M16.75 15.25H9.75C9.34 15.25 9 14.91 9 14.5C9 14.09 9.34 13.75 9.75 13.75H16.75C17.16 13.75 17.5 14.09 17.5 14.5C17.5 14.91 17.16 15.25 16.75 15.25Z" fill="#F8F6F9"/>
</svg>
